<?xml version="1.0" standalone="no"?><svg version="1.1" xmlns="http://www.w3.org/2000/svg" width="1687.735019337456" height="797.7295307927325"><svg x="366.33935546875" y="258.5" width="117.71837061311896" height="177.99220466461753"><path d="M4,22L44.35918530655948,22Q54.35918530655948,22,54.35918530655948,32L54.35918530655948,141.99220466461753Q54.35918530655948,151.99220466461753,64.35918530655948,151.99220466461753L104.71837061311896,151.99220466461753L64.35918530655948,151.99220466461753Q54.35918530655948,151.99220466461753,54.35918530655948,141.99220466461753L54.35918530655948,32Q54.35918530655948,22,44.35918530655948,22L4,22L4,22M4,18L14,22L4,26M94.71837061311896,147.99220466461753L94.71837061311896,155.99220466461753" fill="none" stroke="#D3D3D3" stroke-width="1"></path><text x="7" y="19" style="font-family: &quot;Open Sans&quot;, sans-serif; font-size: 14px; font-weight: normal; fill: transparent;">*</text><text x="93.71348780061896" y="148.99220466461753" style="font-family: &quot;Open Sans&quot;, sans-serif; font-size: 14px; font-weight: normal; fill: transparent;">1</text></svg><svg x="661.401964363119" y="207.60336319039925" width="142.15311309749382" height="228.88884147421828"><path d="M4,202.88884147421828L129.15311309749382,202.88884147421828Q139.15311309749382,202.88884147421828,139.15311309749382,192.88884147421828L139.15311309749382,32Q139.15311309749382,22,129.15311309749382,22L119.15311309749382,22L129.15311309749382,22Q139.15311309749382,22,139.15311309749382,32L139.15311309749382,192.88884147421828Q139.15311309749382,202.88884147421828,129.15311309749382,202.88884147421828L4,202.88884147421828L4,202.88884147421828ZM14,198.88884147421828L14,206.88884147421828M119.15311309749382,18L129.15311309749382,22L119.15311309749382,26" fill="none" stroke="#D3D3D3" stroke-width="1"></path><text x="7" y="199.88884147421828" style="font-family: &quot;Open Sans&quot;, sans-serif; font-size: 14px; font-weight: normal; fill: transparent;">1</text><text x="122.15311309749382" y="19" style="font-family: &quot;Open Sans&quot;, sans-serif; font-size: 14px; font-weight: normal; fill: transparent;">*</text></svg><svg x="661.401964363119" y="388.49220466461753" width="90.26065022493208" height="142.07063379129966"><path d="M4,22L30.63032511246604,22Q40.63032511246604,22,40.63032511246604,32L40.63032511246604,106.07063379129964Q40.63032511246604,116.07063379129964,50.63032511246604,116.07063379129964L77.26065022493208,116.07063379129964L50.63032511246604,116.07063379129964Q40.63032511246604,116.07063379129964,40.63032511246604,106.07063379129964L40.63032511246604,32Q40.63032511246604,22,30.63032511246604,22L4,22L4,22M14,18L14,26M77.26065022493208,112.07063379129964L67.26065022493208,116.07063379129964L77.26065022493208,120.07063379129964" fill="none" stroke="#D3D3D3" stroke-width="1"></path><text x="7" y="19" style="font-family: &quot;Open Sans&quot;, sans-serif; font-size: 14px; font-weight: normal; fill: transparent;">1</text><text x="66.54971272493208" y="113.07063379129964" style="font-family: &quot;Open Sans&quot;, sans-serif; font-size: 14px; font-weight: normal; fill: transparent;">*</text></svg><svg x="1105.001970056801" y="449.5628384559172" width="102.824357874405" height="348.1666923368153"><path d="M4,22L36.9121789372025,22Q46.9121789372025,22,46.9121789372025,32L46.9121789372025,312.1666923368153Q46.9121789372025,322.1666923368153,56.9121789372025,322.1666923368153L89.824357874405,322.1666923368153L56.9121789372025,322.1666923368153Q46.9121789372025,322.1666923368153,46.9121789372025,312.1666923368153L46.9121789372025,32Q46.9121789372025,22,36.9121789372025,22L4,22L4,22M14,18L14,26M89.824357874405,318.1666923368153L79.824357874405,322.1666923368153L89.824357874405,326.1666923368153" fill="none" stroke="#D3D3D3" stroke-width="1"></path><text x="7" y="19" style="font-family: &quot;Open Sans&quot;, sans-serif; font-size: 14px; font-weight: normal; fill: transparent;">1</text><text x="79.113420374405" y="319.1666923368153" style="font-family: &quot;Open Sans&quot;, sans-serif; font-size: 14px; font-weight: normal; fill: transparent;">*</text></svg><svg x="1431.9067752565409" y="51.104475874078275" width="255.82824408091517" height="680.6250549186542"><path d="M4,22L242.82824408091517,22Q252.82824408091517,22,252.82824408091517,32L252.82824408091517,644.6250549186542Q252.82824408091517,654.6250549186542,242.82824408091517,654.6250549186542L232.82824408091517,654.6250549186542L242.82824408091517,654.6250549186542Q252.82824408091517,654.6250549186542,252.82824408091517,644.6250549186542L252.82824408091517,32Q252.82824408091517,22,242.82824408091517,22L4,22L4,22ZM14,18L14,26M232.82824408091517,650.6250549186542L242.82824408091517,654.6250549186542L232.82824408091517,658.6250549186542" fill="none" stroke="#D3D3D3" stroke-width="1"></path><text x="7" y="19" style="font-family: &quot;Open Sans&quot;, sans-serif; font-size: 14px; font-weight: normal; fill: transparent;">1</text><text x="235.82824408091517" y="651.6250549186542" style="font-family: &quot;Open Sans&quot;, sans-serif; font-size: 14px; font-weight: normal; fill: transparent;">*</text></svg><svg x="406.3917853486129" y="421.49220466461753" width="77.66594073325604" height="48.05541174826092"><path d="M4,22.055411748260923L34.30526449249756,22.055411748260923Q34.33297036662802,22.055411748260923,34.33297036662802,22.02770587413046L34.33297036662802,22.02770587413046Q34.33297036662802,22,34.36067624075848,22L64.66594073325604,22L34.36067624075848,22Q34.33297036662802,22,34.33297036662802,22.02770587413046L34.33297036662802,22.02770587413046Q34.33297036662802,22.055411748260923,34.30526449249756,22.055411748260923L4,22.055411748260923L4,22.055411748260923M14,18.055411748260923L14,26.055411748260923M64.66594073325604,18L54.665940733256036,22L64.66594073325604,26" fill="none" stroke="#D3D3D3" stroke-width="1"></path><text x="7" y="19.055411748260923" style="font-family: &quot;Open Sans&quot;, sans-serif; font-size: 14px; font-weight: normal; fill: transparent;">1</text><text x="53.955003233256036" y="19" style="font-family: &quot;Open Sans&quot;, sans-serif; font-size: 14px; font-weight: normal; fill: transparent;">*</text></svg><svg x="40.05242987986293" y="361.0476164128785"><rect x="0" y="0" width="370.33935546875" height="33" fill="#316896"></rect><text x="10" y="19.75" style="font-family: &quot;Open Sans&quot;, sans-serif; font-size: 13px; font-weight: bold; fill: rgb(255, 255, 255);">user_auth</text></svg><svg x="40.05242987986293" y="394.0476164128785"><rect x="0" y="0" width="370.33935546875" height="33" fill="#F2F2F2"></rect><text x="10" y="19.75" style="font-family: &quot;Open Sans&quot;, sans-serif; font-size: 13px; font-weight: bold; fill: black;">id</text><text x="313.576171875" y="19.75" style="font-family: &quot;Open Sans&quot;, sans-serif; font-size: 13px; font-weight: bold; fill: black;">integer</text></svg><svg x="40.05242987986293" y="427.0476164128785"><rect x="0" y="0" width="370.33935546875" height="33" fill="#F2F2F2"></rect><text x="10" y="19.75" style="font-family: &quot;Open Sans&quot;, sans-serif; font-size: 13px; fill: rgb(111, 111, 111);">user_id</text><text x="125.64111328125" y="19.75" style="font-family: &quot;Open Sans&quot;, sans-serif; font-size: 13px; fill: rgb(111, 111, 111);">integer(foreign key references user(id))</text></svg><svg x="40.05242987986293" y="460.0476164128785"><rect x="0" y="0" width="370.33935546875" height="33" fill="#F2F2F2"></rect><text x="10" y="19.75" style="font-family: &quot;Open Sans&quot;, sans-serif; font-size: 13px; fill: rgb(111, 111, 111);">password</text><text x="314.57275390625" y="19.75" style="font-family: &quot;Open Sans&quot;, sans-serif; font-size: 13px; fill: rgb(111, 111, 111);">varchar</text></svg><svg x="471.05772608186896" y="360.99220466461753"><rect x="0" y="0" width="194.34423828125" height="33" fill="#316896"></rect><text x="10" y="19.75" style="font-family: &quot;Open Sans&quot;, sans-serif; font-size: 13px; font-weight: bold; fill: rgb(255, 255, 255);">user</text></svg><svg x="471.05772608186896" y="393.99220466461753"><rect x="0" y="0" width="194.34423828125" height="33" fill="#F2F2F2"></rect><text x="10" y="19.75" style="font-family: &quot;Open Sans&quot;, sans-serif; font-size: 13px; font-weight: bold; fill: black;">id</text><text x="137.5810546875" y="19.75" style="font-family: &quot;Open Sans&quot;, sans-serif; font-size: 13px; font-weight: bold; fill: black;">integer</text></svg><svg x="471.05772608186896" y="426.99220466461753"><rect x="0" y="0" width="194.34423828125" height="33" fill="#F2F2F2"></rect><text x="10" y="19.75" style="font-family: &quot;Open Sans&quot;, sans-serif; font-size: 13px; fill: rgb(111, 111, 111);">username</text><text x="138.57763671875" y="19.75" style="font-family: &quot;Open Sans&quot;, sans-serif; font-size: 13px; fill: rgb(111, 111, 111);">varchar</text></svg><svg x="471.05772608186896" y="459.99220466461753"><rect x="0" y="0" width="194.34423828125" height="33" fill="#F2F2F2"></rect><text x="10" y="19.75" style="font-family: &quot;Open Sans&quot;, sans-serif; font-size: 13px; fill: rgb(111, 111, 111);">gender</text><text x="138.57763671875" y="19.75" style="font-family: &quot;Open Sans&quot;, sans-serif; font-size: 13px; fill: rgb(111, 111, 111);">varchar</text></svg><svg x="471.05772608186896" y="492.99220466461753"><rect x="0" y="0" width="194.34423828125" height="33" fill="#F2F2F2"></rect><text x="10" y="19.75" style="font-family: &quot;Open Sans&quot;, sans-serif; font-size: 13px; fill: rgb(111, 111, 111);">role</text><text x="138.57763671875" y="19.75" style="font-family: &quot;Open Sans&quot;, sans-serif; font-size: 13px; fill: rgb(111, 111, 111);">varchar</text></svg><svg x="471.05772608186896" y="525.9922046646176"><rect x="0" y="0" width="194.34423828125" height="33" fill="#F2F2F2"></rect><text x="10" y="19.75" style="font-family: &quot;Open Sans&quot;, sans-serif; font-size: 13px; fill: rgb(111, 111, 111);">email</text><text x="138.57763671875" y="19.75" style="font-family: &quot;Open Sans&quot;, sans-serif; font-size: 13px; fill: rgb(111, 111, 111);">varchar</text></svg><svg x="471.05772608186896" y="558.9922046646176"><rect x="0" y="0" width="194.34423828125" height="33" fill="#F2F2F2"></rect><text x="10" y="19.75" style="font-family: &quot;Open Sans&quot;, sans-serif; font-size: 13px; fill: rgb(111, 111, 111);">handphone</text><text x="138.57763671875" y="19.75" style="font-family: &quot;Open Sans&quot;, sans-serif; font-size: 13px; fill: rgb(111, 111, 111);">varchar</text></svg><svg x="471.05772608186896" y="591.9922046646176"><rect x="0" y="0" width="194.34423828125" height="33" fill="#F2F2F2"></rect><text x="10" y="19.75" style="font-family: &quot;Open Sans&quot;, sans-serif; font-size: 13px; fill: rgb(111, 111, 111);">birth_date</text><text x="138.57763671875" y="19.75" style="font-family: &quot;Open Sans&quot;, sans-serif; font-size: 13px; fill: rgb(111, 111, 111);">varchar</text></svg><svg x="0" y="0"><rect x="0" y="0" width="370.33935546875" height="33" fill="#316896"></rect><text x="10" y="19.75" style="font-family: &quot;Open Sans&quot;, sans-serif; font-size: 13px; font-weight: bold; fill: rgb(255, 255, 255);">addresses</text></svg><svg x="0" y="33"><rect x="0" y="0" width="370.33935546875" height="33" fill="#F2F2F2"></rect><text x="10" y="19.75" style="font-family: &quot;Open Sans&quot;, sans-serif; font-size: 13px; font-weight: bold; fill: black;">id</text><text x="313.576171875" y="19.75" style="font-family: &quot;Open Sans&quot;, sans-serif; font-size: 13px; font-weight: bold; fill: black;">integer</text></svg><svg x="0" y="66"><rect x="0" y="0" width="370.33935546875" height="33" fill="#F2F2F2"></rect><text x="10" y="19.75" style="font-family: &quot;Open Sans&quot;, sans-serif; font-size: 13px; fill: rgb(111, 111, 111);">address</text><text x="314.57275390625" y="19.75" style="font-family: &quot;Open Sans&quot;, sans-serif; font-size: 13px; fill: rgb(111, 111, 111);">varchar</text></svg><svg x="0" y="99"><rect x="0" y="0" width="370.33935546875" height="33" fill="#F2F2F2"></rect><text x="10" y="19.75" style="font-family: &quot;Open Sans&quot;, sans-serif; font-size: 13px; fill: rgb(111, 111, 111);">pinpoint</text><text x="314.57275390625" y="19.75" style="font-family: &quot;Open Sans&quot;, sans-serif; font-size: 13px; fill: rgb(111, 111, 111);">varchar</text></svg><svg x="0" y="132"><rect x="0" y="0" width="370.33935546875" height="33" fill="#F2F2F2"></rect><text x="10" y="19.75" style="font-family: &quot;Open Sans&quot;, sans-serif; font-size: 13px; fill: rgb(111, 111, 111);">address_label</text><text x="314.57275390625" y="19.75" style="font-family: &quot;Open Sans&quot;, sans-serif; font-size: 13px; fill: rgb(111, 111, 111);">varchar</text></svg><svg x="0" y="165"><rect x="0" y="0" width="370.33935546875" height="33" fill="#F2F2F2"></rect><text x="10" y="19.75" style="font-family: &quot;Open Sans&quot;, sans-serif; font-size: 13px; fill: rgb(111, 111, 111);">note</text><text x="314.57275390625" y="19.75" style="font-family: &quot;Open Sans&quot;, sans-serif; font-size: 13px; fill: rgb(111, 111, 111);">varchar</text></svg><svg x="0" y="198"><rect x="0" y="0" width="370.33935546875" height="33" fill="#F2F2F2"></rect><text x="10" y="19.75" style="font-family: &quot;Open Sans&quot;, sans-serif; font-size: 13px; fill: rgb(111, 111, 111);">recipients_name</text><text x="314.57275390625" y="19.75" style="font-family: &quot;Open Sans&quot;, sans-serif; font-size: 13px; fill: rgb(111, 111, 111);">varchar</text></svg><svg x="0" y="231"><rect x="0" y="0" width="370.33935546875" height="33" fill="#F2F2F2"></rect><text x="10" y="19.75" style="font-family: &quot;Open Sans&quot;, sans-serif; font-size: 13px; fill: rgb(111, 111, 111);">created_at</text><text x="295.04736328125" y="19.75" style="font-family: &quot;Open Sans&quot;, sans-serif; font-size: 13px; fill: rgb(111, 111, 111);">timestamp</text></svg><svg x="0" y="264"><rect x="0" y="0" width="370.33935546875" height="33" fill="#F2F2F2"></rect><text x="10" y="19.75" style="font-family: &quot;Open Sans&quot;, sans-serif; font-size: 13px; fill: rgb(111, 111, 111);">user_id</text><text x="125.64111328125" y="19.75" style="font-family: &quot;Open Sans&quot;, sans-serif; font-size: 13px; fill: rgb(111, 111, 111);">integer(foreign key references user(id))</text></svg><svg x="410.2157219918628" y="48.10336319039925"><rect x="0" y="0" width="370.33935546875" height="33" fill="#316896"></rect><text x="10" y="19.75" style="font-family: &quot;Open Sans&quot;, sans-serif; font-size: 13px; font-weight: bold; fill: rgb(255, 255, 255);">bank_account</text></svg><svg x="410.2157219918628" y="81.10336319039925"><rect x="0" y="0" width="370.33935546875" height="33" fill="#F2F2F2"></rect><text x="10" y="19.75" style="font-family: &quot;Open Sans&quot;, sans-serif; font-size: 13px; font-weight: bold; fill: black;">id</text><text x="313.576171875" y="19.75" style="font-family: &quot;Open Sans&quot;, sans-serif; font-size: 13px; font-weight: bold; fill: black;">integer</text></svg><svg x="410.2157219918628" y="114.10336319039925"><rect x="0" y="0" width="370.33935546875" height="33" fill="#F2F2F2"></rect><text x="10" y="19.75" style="font-family: &quot;Open Sans&quot;, sans-serif; font-size: 13px; fill: rgb(111, 111, 111);">bank_name</text><text x="314.57275390625" y="19.75" style="font-family: &quot;Open Sans&quot;, sans-serif; font-size: 13px; fill: rgb(111, 111, 111);">varchar</text></svg><svg x="410.2157219918628" y="147.10336319039925"><rect x="0" y="0" width="370.33935546875" height="33" fill="#F2F2F2"></rect><text x="10" y="19.75" style="font-family: &quot;Open Sans&quot;, sans-serif; font-size: 13px; fill: rgb(111, 111, 111);">account_number</text><text x="314.57275390625" y="19.75" style="font-family: &quot;Open Sans&quot;, sans-serif; font-size: 13px; fill: rgb(111, 111, 111);">varchar</text></svg><svg x="410.2157219918628" y="180.10336319039925"><rect x="0" y="0" width="370.33935546875" height="33" fill="#F2F2F2"></rect><text x="10" y="19.75" style="font-family: &quot;Open Sans&quot;, sans-serif; font-size: 13px; fill: rgb(111, 111, 111);">holder_name</text><text x="314.57275390625" y="19.75" style="font-family: &quot;Open Sans&quot;, sans-serif; font-size: 13px; fill: rgb(111, 111, 111);">varchar</text></svg><svg x="410.2157219918628" y="213.10336319039925"><rect x="0" y="0" width="370.33935546875" height="33" fill="#F2F2F2"></rect><text x="10" y="19.75" style="font-family: &quot;Open Sans&quot;, sans-serif; font-size: 13px; fill: rgb(111, 111, 111);">user_id</text><text x="125.64111328125" y="19.75" style="font-family: &quot;Open Sans&quot;, sans-serif; font-size: 13px; fill: rgb(111, 111, 111);">integer(foreign key references user(id))</text></svg><svg x="1194.826327931206" y="326.2295307927325"><rect x="0" y="0" width="469.90869140625" height="33" fill="#316896"></rect><text x="10" y="19.75" style="font-family: &quot;Open Sans&quot;, sans-serif; font-size: 13px; font-weight: bold; fill: rgb(255, 255, 255);">transaction_item</text></svg><svg x="1194.826327931206" y="359.2295307927325"><rect x="0" y="0" width="469.90869140625" height="33" fill="#F2F2F2"></rect><text x="10" y="19.75" style="font-family: &quot;Open Sans&quot;, sans-serif; font-size: 13px; font-weight: bold; fill: black;">id</text><text x="413.1455078125" y="19.75" style="font-family: &quot;Open Sans&quot;, sans-serif; font-size: 13px; font-weight: bold; fill: black;">integer</text></svg><svg x="1194.826327931206" y="392.2295307927325"><rect x="0" y="0" width="469.90869140625" height="33" fill="#F2F2F2"></rect><text x="10" y="19.75" style="font-family: &quot;Open Sans&quot;, sans-serif; font-size: 13px; fill: rgb(111, 111, 111);">username</text><text x="414.14208984375" y="19.75" style="font-family: &quot;Open Sans&quot;, sans-serif; font-size: 13px; fill: rgb(111, 111, 111);">varchar</text></svg><svg x="1194.826327931206" y="425.2295307927325"><rect x="0" y="0" width="469.90869140625" height="33" fill="#F2F2F2"></rect><text x="10" y="19.75" style="font-family: &quot;Open Sans&quot;, sans-serif; font-size: 13px; fill: rgb(111, 111, 111);">handphone</text><text x="414.14208984375" y="19.75" style="font-family: &quot;Open Sans&quot;, sans-serif; font-size: 13px; fill: rgb(111, 111, 111);">varchar</text></svg><svg x="1194.826327931206" y="458.2295307927325"><rect x="0" y="0" width="469.90869140625" height="33" fill="#F2F2F2"></rect><text x="10" y="19.75" style="font-family: &quot;Open Sans&quot;, sans-serif; font-size: 13px; fill: rgb(111, 111, 111);">address</text><text x="414.14208984375" y="19.75" style="font-family: &quot;Open Sans&quot;, sans-serif; font-size: 13px; fill: rgb(111, 111, 111);">varchar</text></svg><svg x="1194.826327931206" y="491.2295307927325"><rect x="0" y="0" width="469.90869140625" height="33" fill="#F2F2F2"></rect><text x="10" y="19.75" style="font-family: &quot;Open Sans&quot;, sans-serif; font-size: 13px; fill: rgb(111, 111, 111);">courier</text><text x="414.14208984375" y="19.75" style="font-family: &quot;Open Sans&quot;, sans-serif; font-size: 13px; fill: rgb(111, 111, 111);">varchar</text></svg><svg x="1194.826327931206" y="524.2295307927325"><rect x="0" y="0" width="469.90869140625" height="33" fill="#F2F2F2"></rect><text x="10" y="19.75" style="font-family: &quot;Open Sans&quot;, sans-serif; font-size: 13px; fill: rgb(111, 111, 111);">tracking_number</text><text x="414.14208984375" y="19.75" style="font-family: &quot;Open Sans&quot;, sans-serif; font-size: 13px; fill: rgb(111, 111, 111);">varchar</text></svg><svg x="1194.826327931206" y="557.2295307927325"><rect x="0" y="0" width="469.90869140625" height="33" fill="#F2F2F2"></rect><text x="10" y="19.75" style="font-family: &quot;Open Sans&quot;, sans-serif; font-size: 13px; fill: rgb(111, 111, 111);">total_transaction</text><text x="417.04931640625" y="19.75" style="font-family: &quot;Open Sans&quot;, sans-serif; font-size: 13px; fill: rgb(111, 111, 111);">integer</text></svg><svg x="1194.826327931206" y="590.2295307927325"><rect x="0" y="0" width="469.90869140625" height="33" fill="#F2F2F2"></rect><text x="10" y="19.75" style="font-family: &quot;Open Sans&quot;, sans-serif; font-size: 13px; fill: rgb(111, 111, 111);">payment_method</text><text x="414.14208984375" y="19.75" style="font-family: &quot;Open Sans&quot;, sans-serif; font-size: 13px; fill: rgb(111, 111, 111);">varchar</text></svg><svg x="1194.826327931206" y="623.2295307927325"><rect x="0" y="0" width="469.90869140625" height="33" fill="#F2F2F2"></rect><text x="10" y="19.75" style="font-family: &quot;Open Sans&quot;, sans-serif; font-size: 13px; fill: rgb(111, 111, 111);">account_number</text><text x="414.14208984375" y="19.75" style="font-family: &quot;Open Sans&quot;, sans-serif; font-size: 13px; fill: rgb(111, 111, 111);">varchar</text></svg><svg x="1194.826327931206" y="656.2295307927325"><rect x="0" y="0" width="469.90869140625" height="33" fill="#F2F2F2"></rect><text x="10" y="19.75" style="font-family: &quot;Open Sans&quot;, sans-serif; font-size: 13px; fill: rgb(111, 111, 111);">holder_name</text><text x="414.14208984375" y="19.75" style="font-family: &quot;Open Sans&quot;, sans-serif; font-size: 13px; fill: rgb(111, 111, 111);">varchar</text></svg><svg x="1194.826327931206" y="689.2295307927325"><rect x="0" y="0" width="469.90869140625" height="33" fill="#F2F2F2"></rect><text x="10" y="19.75" style="font-family: &quot;Open Sans&quot;, sans-serif; font-size: 13px; fill: rgb(111, 111, 111);">product_id</text><text x="197.921875" y="19.75" style="font-family: &quot;Open Sans&quot;, sans-serif; font-size: 13px; fill: rgb(111, 111, 111);">integer(foreign key references products(id))</text></svg><svg x="1194.826327931206" y="722.2295307927325"><rect x="0" y="0" width="469.90869140625" height="33" fill="#F2F2F2"></rect><text x="10" y="19.75" style="font-family: &quot;Open Sans&quot;, sans-serif; font-size: 13px; fill: rgb(111, 111, 111);">quantity</text><text x="417.04931640625" y="19.75" style="font-family: &quot;Open Sans&quot;, sans-serif; font-size: 13px; fill: rgb(111, 111, 111);">integer</text></svg><svg x="1194.826327931206" y="755.2295307927325"><rect x="0" y="0" width="469.90869140625" height="33" fill="#F2F2F2"></rect><text x="10" y="19.75" style="font-family: &quot;Open Sans&quot;, sans-serif; font-size: 13px; fill: rgb(111, 111, 111);">transaction_id</text><text x="177.29833984375" y="19.75" style="font-family: &quot;Open Sans&quot;, sans-serif; font-size: 13px; fill: rgb(111, 111, 111);">integer(foreign key references transactions(id))</text></svg><svg x="738.662614588051" y="422.0628384559172"><rect x="0" y="0" width="370.33935546875" height="33" fill="#316896"></rect><text x="10" y="19.75" style="font-family: &quot;Open Sans&quot;, sans-serif; font-size: 13px; font-weight: bold; fill: rgb(255, 255, 255);">transactions</text></svg><svg x="738.662614588051" y="455.0628384559172"><rect x="0" y="0" width="370.33935546875" height="33" fill="#F2F2F2"></rect><text x="10" y="19.75" style="font-family: &quot;Open Sans&quot;, sans-serif; font-size: 13px; font-weight: bold; fill: black;">id</text><text x="313.576171875" y="19.75" style="font-family: &quot;Open Sans&quot;, sans-serif; font-size: 13px; font-weight: bold; fill: black;">integer</text></svg><svg x="738.662614588051" y="488.0628384559172"><rect x="0" y="0" width="370.33935546875" height="33" fill="#F2F2F2"></rect><text x="10" y="19.75" style="font-family: &quot;Open Sans&quot;, sans-serif; font-size: 13px; fill: rgb(111, 111, 111);">user_id</text><text x="125.64111328125" y="19.75" style="font-family: &quot;Open Sans&quot;, sans-serif; font-size: 13px; fill: rgb(111, 111, 111);">integer(foreign key references user(id))</text></svg><svg x="738.662614588051" y="521.0628384559172"><rect x="0" y="0" width="370.33935546875" height="33" fill="#F2F2F2"></rect><text x="10" y="19.75" style="font-family: &quot;Open Sans&quot;, sans-serif; font-size: 13px; fill: rgb(111, 111, 111);">quantity</text><text x="317.47998046875" y="19.75" style="font-family: &quot;Open Sans&quot;, sans-serif; font-size: 13px; fill: rgb(111, 111, 111);">integer</text></svg><svg x="738.662614588051" y="554.0628384559172"><rect x="0" y="0" width="370.33935546875" height="33" fill="#F2F2F2"></rect><text x="10" y="19.75" style="font-family: &quot;Open Sans&quot;, sans-serif; font-size: 13px; fill: rgb(111, 111, 111);">store_name</text><text x="314.57275390625" y="19.75" style="font-family: &quot;Open Sans&quot;, sans-serif; font-size: 13px; fill: rgb(111, 111, 111);">varchar</text></svg><svg x="1219.5425174440409" y="23.604475874078275"><rect x="0" y="0" width="216.3642578125" height="33" fill="#316896"></rect><text x="10" y="19.75" style="font-family: &quot;Open Sans&quot;, sans-serif; font-size: 13px; font-weight: bold; fill: rgb(255, 255, 255);">products</text></svg><svg x="1219.5425174440409" y="56.604475874078275"><rect x="0" y="0" width="216.3642578125" height="33" fill="#F2F2F2"></rect><text x="10" y="19.75" style="font-family: &quot;Open Sans&quot;, sans-serif; font-size: 13px; font-weight: bold; fill: black;">id</text><text x="159.60107421875" y="19.75" style="font-family: &quot;Open Sans&quot;, sans-serif; font-size: 13px; font-weight: bold; fill: black;">integer</text></svg><svg x="1219.5425174440409" y="89.60447587407828"><rect x="0" y="0" width="216.3642578125" height="33" fill="#F2F2F2"></rect><text x="10" y="19.75" style="font-family: &quot;Open Sans&quot;, sans-serif; font-size: 13px; fill: rgb(111, 111, 111);">product_name</text><text x="160.59765625" y="19.75" style="font-family: &quot;Open Sans&quot;, sans-serif; font-size: 13px; fill: rgb(111, 111, 111);">varchar</text></svg><svg x="1219.5425174440409" y="122.60447587407828"><rect x="0" y="0" width="216.3642578125" height="33" fill="#F2F2F2"></rect><text x="10" y="19.75" style="font-family: &quot;Open Sans&quot;, sans-serif; font-size: 13px; fill: rgb(111, 111, 111);">price</text><text x="163.5048828125" y="19.75" style="font-family: &quot;Open Sans&quot;, sans-serif; font-size: 13px; fill: rgb(111, 111, 111);">integer</text></svg><svg x="1219.5425174440409" y="155.60447587407828"><rect x="0" y="0" width="216.3642578125" height="33" fill="#F2F2F2"></rect><text x="10" y="19.75" style="font-family: &quot;Open Sans&quot;, sans-serif; font-size: 13px; fill: rgb(111, 111, 111);">description</text><text x="160.59765625" y="19.75" style="font-family: &quot;Open Sans&quot;, sans-serif; font-size: 13px; fill: rgb(111, 111, 111);">varchar</text></svg><svg x="1219.5425174440409" y="188.60447587407828"><rect x="0" y="0" width="216.3642578125" height="33" fill="#F2F2F2"></rect><text x="10" y="19.75" style="font-family: &quot;Open Sans&quot;, sans-serif; font-size: 13px; fill: rgb(111, 111, 111);">product_image</text><text x="160.59765625" y="19.75" style="font-family: &quot;Open Sans&quot;, sans-serif; font-size: 13px; fill: rgb(111, 111, 111);">varchar</text></svg><svg x="1219.5425174440409" y="221.60447587407828"><rect x="0" y="0" width="216.3642578125" height="33" fill="#F2F2F2"></rect><text x="10" y="19.75" style="font-family: &quot;Open Sans&quot;, sans-serif; font-size: 13px; fill: rgb(111, 111, 111);">product_id</text><text x="163.5048828125" y="19.75" style="font-family: &quot;Open Sans&quot;, sans-serif; font-size: 13px; fill: rgb(111, 111, 111);">integer</text></svg></svg>